<?xml version="1.0" encoding="utf-8"?>
<!-- Generator: Adobe Illustrator 23.0.3, SVG Export Plug-In . SVG Version: 6.00 Build 0)  -->
<svg version="1.1" id="Layer_1" xmlns="http://www.w3.org/2000/svg" xmlns:xlink="http://www.w3.org/1999/xlink" x="0px" y="0px"
	 viewBox="0 0 792 612" style="enable-background:new 0 0 792 612;" xml:space="preserve">
<style type="text/css">
	.st0{fill:#232020;}
</style>
<g>
	<g>
		<path class="st0" d="M562.3,610.9H100.2c-3.2,0-5.9-2.6-5.9-5.9V143.7c0-3.2,2.6-5.9,5.9-5.9h462.1c3.2,0,5.9,2.6,5.9,5.9V605
			C568.2,608.2,565.6,610.9,562.3,610.9z M106.1,599.1h450.3V149.6H106.1V599.1z"/>
	</g>
	<g>
		<path class="st0" d="M692.1,473H230c-3.2,0-5.9-2.6-5.9-5.9V308.7c0-3.2,2.6-5.9,5.9-5.9h117.8c3.2,0,5.9,2.6,5.9,5.9
			c0,3.2-2.6,5.9-5.9,5.9H235.9v146.7h450.3V11.7H235.9v132c0,3.2-2.6,5.9-5.9,5.9s-5.9-2.6-5.9-5.9V5.9c0-3.2,2.6-5.9,5.9-5.9
			h462.1c3.2,0,5.9,2.6,5.9,5.9v461.3C698,470.4,695.4,473,692.1,473z"/>
	</g>
	<g>
		<path class="st0" d="M403.5,332.4c-13.1,0-23.7-10.6-23.7-23.7c0-13.1,10.7-23.7,23.7-23.7c13.1,0,23.7,10.6,23.7,23.7
			C427.3,321.7,416.6,332.4,403.5,332.4z M403.5,296.7c-6.6,0-12,5.4-12,12s5.4,12,12,12c6.6,0,12-5.4,12-12
			C415.5,302,410.1,296.7,403.5,296.7z"/>
	</g>
</g>
</svg>
